<svg width="100" height="108" viewBox="0 0 100 108" fill="none" xmlns="http://www.w3.org/2000/svg">
<mask id="path-1-inside-1_230_6239" fill="white">
<path fill-rule="evenodd" clip-rule="evenodd" d="M0 49.6801V24.6763C0 11.0481 11.0478 0.000233054 24.676 0.000233054H30.1433C38.285 0.000233054 45.5058 3.94329 50.0001 10.0239C54.4945 3.94316 61.7153 0 69.8571 0H75.3244C88.9526 0 100 11.0478 100 24.676V53.6239C100 53.6701 100 53.7164 100 53.7626V71.8673C100 91.8228 83.8228 108 63.8673 108H36.1327C16.1772 108 0 91.8228 0 71.8673V53.6241V49.6801Z"/>
</mask>
<path fill-rule="evenodd" clip-rule="evenodd" d="M0 49.6801V24.6763C0 11.0481 11.0478 0.000233054 24.676 0.000233054H30.1433C38.285 0.000233054 45.5058 3.94329 50.0001 10.0239C54.4945 3.94316 61.7153 0 69.8571 0H75.3244C88.9526 0 100 11.0478 100 24.676V53.6239C100 53.6701 100 53.7164 100 53.7626V71.8673C100 91.8228 83.8228 108 63.8673 108H36.1327C16.1772 108 0 91.8228 0 71.8673V53.6241V49.6801Z" fill="#DEF487"/>
<path d="M50.0001 10.0239L47.5876 11.8071L50.0001 15.0712L52.4127 11.8071L50.0001 10.0239ZM100 53.7626L97 53.7462L97 53.7544V53.7626H100ZM3 49.6801V24.6763H-3V49.6801H3ZM3 24.6763C3 12.7049 12.7047 3.00023 24.676 3.00023V-2.99977C9.39097 -2.99977 -3 9.39123 -3 24.6763H3ZM24.676 3.00023H30.1433V-2.99977H24.676V3.00023ZM30.1433 3.00023C37.2931 3.00023 43.6345 6.4588 47.5876 11.8071L52.4127 8.24078C47.377 1.42777 39.2769 -2.99977 30.1433 -2.99977V3.00023ZM52.4127 11.8071C56.3657 6.45866 62.7072 3 69.8571 3V-3C60.7234 -3 52.6232 1.42765 47.5876 8.2408L52.4127 11.8071ZM69.8571 3H75.3244V-3H69.8571V3ZM75.3244 3C87.2957 3 97.0004 12.7047 97.0004 24.676H103C103 9.39098 90.6094 -3 75.3244 -3V3ZM97.0004 24.676V53.6239H103V24.676H97.0004ZM97.0004 53.6239C97.0004 53.6645 97.0003 53.7053 97 53.7462L103 53.7789C103 53.7274 103 53.6757 103 53.6239H97.0004ZM97 53.7626V71.8673H103V53.7626H97ZM97 71.8673C97 90.166 82.166 105 63.8673 105V111C85.4797 111 103 93.4797 103 71.8673H97ZM63.8673 105H36.1327V111H63.8673V105ZM36.1327 105C17.834 105 3 90.166 3 71.8673H-3C-3 93.4797 14.5203 111 36.1327 111V105ZM3 71.8673V53.6241H-3V71.8673H3ZM3 53.6241V49.6801H-3V53.6241H3Z" fill="#FF93C7" mask="url(#path-1-inside-1_230_6239)"/>
</svg>
