<svg width="100" height="108" viewBox="0 0 100 108" fill="none" xmlns="http://www.w3.org/2000/svg">
<path fill-rule="evenodd" clip-rule="evenodd" d="M100.001 28.6954C100.001 39.3773 94.5482 48.696 86.4598 53.6363C94.5482 58.5767 100.001 67.8953 100.001 78.5772C100.001 94.3181 88.1604 107.099 73.4933 107.271V107.273H25.3001V107.228C11.9446 106.436 1.19656 95.1797 0.0926085 80.991H-0.000887784V78.5772V30.0364H0.0277757C0.00867748 29.592 -0.000976562 29.1449 -0.000976562 28.6955C-0.000976562 12.8474 12.0011 0 26.8065 0C27.3118 0 27.8139 0.0149669 28.3123 0.0445091V-1.10973e-05H73.1933H73.4934V0.00175046C88.1605 0.173987 100.001 12.9546 100.001 28.6954ZM59.9268 53.6363C55.8121 56.1496 52.3795 59.7958 49.9999 64.1783C47.6203 59.7958 44.1878 56.1495 40.0731 53.6363C44.1878 51.1231 47.6203 47.4768 49.9999 43.0943C52.3795 47.4768 55.8121 51.1231 59.9268 53.6363Z" fill="#687CFF"/>
<ellipse cx="49.3972" cy="52.8318" rx="15.0604" ry="16.8955" fill="#687CFF"/>
</svg>
