<svg width="304" height="326" viewBox="0 0 304 326" fill="none" xmlns="http://www.w3.org/2000/svg">
<path fill-rule="evenodd" clip-rule="evenodd" d="M151.709 131.831C144.527 144.874 134.276 155.743 122.023 163.293C134.302 170.542 144.639 181.03 152.001 193.664C159.464 180.859 169.982 170.258 182.479 163C169.818 155.647 159.188 144.863 151.709 131.831ZM0.00292969 239.168V88.1764C0.000977856 87.927 0 87.6772 0 87.4273C0 87.1773 0.000977856 86.9276 0.00292969 86.6781V85.3084H0.0234648C1.06046 38.5349 36.3389 0.856438 80 0.014395V0H81.4939H221.921H222C267.295 0.0452458 304 38.9038 304 86.8318C304 119.665 286.774 148.242 261.362 163C286.774 177.758 304 206.335 304 239.168C304 287.124 267.252 326 221.921 326H82.0821C37.232 326 0.783705 287.945 0.0153069 240.692H0.00292969V239.168Z" fill="#687CFF"/>
<ellipse cx="150.169" cy="160.964" rx="45.7831" ry="51.4759" fill="#687CFF"/>
</svg>
