<svg width="100" height="108" viewBox="0 0 100 108" fill="none" xmlns="http://www.w3.org/2000/svg">
<mask id="path-1-inside-1_230_6429" fill="white">
<path fill-rule="evenodd" clip-rule="evenodd" d="M27.1364 0C12.1494 0 0 12.1494 0 27.1364V34.4337C0 42.1214 3.1968 49.0624 8.33358 54C3.1968 58.9376 0 65.8786 0 73.5663V80.8636C0 95.8506 12.1494 108 27.1364 108H27.8636C37.0004 108 45.0825 103.484 50 96.5634C54.9175 103.484 62.9996 108 72.1364 108H72.8636C87.8506 108 100 95.8506 100 80.8636V73.5663C100 65.8786 96.8032 58.9376 91.6664 54C96.8032 49.0624 100 42.1214 100 34.4337V27.1364C100 12.1494 87.8506 0 72.8636 0H72.1364C62.9996 0 54.9175 4.51551 50 11.4366C45.0825 4.51551 37.0004 0 27.8636 0H27.1364Z"/>
</mask>
<path fill-rule="evenodd" clip-rule="evenodd" d="M27.1364 0C12.1494 0 0 12.1494 0 27.1364V34.4337C0 42.1214 3.1968 49.0624 8.33358 54C3.1968 58.9376 0 65.8786 0 73.5663V80.8636C0 95.8506 12.1494 108 27.1364 108H27.8636C37.0004 108 45.0825 103.484 50 96.5634C54.9175 103.484 62.9996 108 72.1364 108H72.8636C87.8506 108 100 95.8506 100 80.8636V73.5663C100 65.8786 96.8032 58.9376 91.6664 54C96.8032 49.0624 100 42.1214 100 34.4337V27.1364C100 12.1494 87.8506 0 72.8636 0H72.1364C62.9996 0 54.9175 4.51551 50 11.4366C45.0825 4.51551 37.0004 0 27.8636 0H27.1364Z" fill="#FF93C7"/>
<path d="M8.33358 54L10.4125 56.1628C11.001 55.5972 11.3336 54.8162 11.3336 54C11.3336 53.1838 11.001 52.4028 10.4125 51.8372L8.33358 54ZM50 96.5634L52.4456 94.8258C51.8829 94.0338 50.9715 93.5634 50 93.5634C49.0285 93.5634 48.1171 94.0338 47.5544 94.8258L50 96.5634ZM91.6664 54L89.5875 51.8372C88.999 52.4028 88.6664 53.1838 88.6664 54C88.6664 54.8162 88.999 55.5972 89.5875 56.1628L91.6664 54ZM50 11.4366L47.5544 13.1742C48.1171 13.9662 49.0285 14.4366 50 14.4366C50.9715 14.4366 51.8829 13.9662 52.4456 13.1742L50 11.4366ZM3 27.1364C3 13.8062 13.8062 3 27.1364 3V-3C10.4925 -3 -3 10.4925 -3 27.1364H3ZM3 34.4337V27.1364H-3V34.4337H3ZM10.4125 51.8372C5.83982 47.4418 3 41.2719 3 34.4337H-3C-3 42.9709 0.55378 50.6831 6.25461 56.1628L10.4125 51.8372ZM3 73.5663C3 66.7281 5.83982 60.5582 10.4125 56.1628L6.25461 51.8372C0.55378 57.3169 -3 65.0291 -3 73.5663H3ZM3 80.8636V73.5663H-3V80.8636H3ZM27.1364 105C13.8062 105 3 94.1938 3 80.8636H-3C-3 97.5075 10.4925 111 27.1364 111V105ZM27.8636 105H27.1364V111H27.8636V105ZM47.5544 94.8258C43.1754 100.989 35.9879 105 27.8636 105V111C38.0129 111 46.9895 105.98 52.4456 98.301L47.5544 94.8258ZM72.1364 105C64.0121 105 56.8246 100.989 52.4456 94.8258L47.5544 98.301C53.0105 105.98 61.9871 111 72.1364 111V105ZM72.8636 105H72.1364V111H72.8636V105ZM97 80.8636C97 94.1938 86.1938 105 72.8636 105V111C89.5075 111 103 97.5075 103 80.8636H97ZM97 73.5663V80.8636H103V73.5663H97ZM89.5875 56.1628C94.1602 60.5582 97 66.7281 97 73.5663H103C103 65.0291 99.4462 57.3169 93.7454 51.8372L89.5875 56.1628ZM97 34.4337C97 41.2719 94.1602 47.4418 89.5875 51.8372L93.7454 56.1628C99.4462 50.6831 103 42.9709 103 34.4337H97ZM97 27.1364V34.4337H103V27.1364H97ZM72.8636 3C86.1938 3 97 13.8062 97 27.1364H103C103 10.4925 89.5075 -3 72.8636 -3V3ZM72.1364 3H72.8636V-3H72.1364V3ZM52.4456 13.1742C56.8246 7.01105 64.0121 3 72.1364 3V-3C61.9871 -3 53.0105 2.01998 47.5544 9.69904L52.4456 13.1742ZM27.8636 3C35.9879 3 43.1754 7.01105 47.5544 13.1742L52.4456 9.69904C46.9895 2.01997 38.0129 -3 27.8636 -3V3ZM27.1364 3H27.8636V-3H27.1364V3Z" fill="#DEF487" mask="url(#path-1-inside-1_230_6429)"/>
</svg>
