<svg width="100" height="108" viewBox="0 0 100 108" fill="none" xmlns="http://www.w3.org/2000/svg">
<mask id="path-1-inside-1_230_6219" fill="white">
<path fill-rule="evenodd" clip-rule="evenodd" d="M0.000976562 29.2135V79.2336V79.7383H0.00504815C0.257816 95.3927 12.2475 108 27.001 108H73.001C87.9127 108 100.001 95.1209 100.001 79.2336C100.001 68.3564 94.3346 58.8892 85.9752 54C94.3346 49.1108 100.001 39.6436 100.001 28.7664C100.001 12.8791 87.9127 0 73.001 0H26.8075H26.001V0.0128567C11.7843 0.466701 0.346341 12.8796 0.0077188 28.2617H0.000976562V28.7138C0.000325955 28.797 0 28.8803 0 28.9636C0 29.047 0.000325955 29.1303 0.000976562 29.2135Z"/>
</mask>
<path fill-rule="evenodd" clip-rule="evenodd" d="M0.000976562 29.2135V79.2336V79.7383H0.00504815C0.257816 95.3927 12.2475 108 27.001 108H73.001C87.9127 108 100.001 95.1209 100.001 79.2336C100.001 68.3564 94.3346 58.8892 85.9752 54C94.3346 49.1108 100.001 39.6436 100.001 28.7664C100.001 12.8791 87.9127 0 73.001 0H26.8075H26.001V0.0128567C11.7843 0.466701 0.346341 12.8796 0.0077188 28.2617H0.000976562V28.7138C0.000325955 28.797 0 28.8803 0 28.9636C0 29.047 0.000325955 29.1303 0.000976562 29.2135Z" fill="#687CFF"/>
<path d="M0.000976562 29.2135H3.00098V29.2017L3.00088 29.19L0.000976562 29.2135ZM0.000976562 79.7383H-2.99902V82.7383H0.000976562V79.7383ZM0.00504815 79.7383L3.00466 79.6899L2.957 76.7383H0.00504815V79.7383ZM85.9752 54L84.4606 51.4104L80.0331 54L84.4606 56.5896L85.9752 54ZM26.001 0V-3H23.001V0H26.001ZM26.001 0.0128567L26.0967 3.01133L29.001 2.91861V0.0128567H26.001ZM0.0077188 28.2617V31.2617H2.9424L3.00699 28.3277L0.0077188 28.2617ZM0.000976562 28.2617V25.2617H-2.99902V28.2617H0.000976562ZM0.000976562 28.7138L3.00088 28.7373L3.00098 28.7255V28.7138H0.000976562ZM3.00098 79.2336V29.2135H-2.99902V79.2336H3.00098ZM3.00098 79.7383V79.2336H-2.99902V79.7383H3.00098ZM0.00504815 76.7383H0.000976562V82.7383H0.00504815V76.7383ZM27.001 105C14.0602 105 3.23389 93.887 3.00466 79.6899L-2.99456 79.7868C-2.71826 96.8985 10.4348 111 27.001 111V105ZM73.001 105H27.001V111H73.001V105ZM97.001 79.2336C97.001 93.6459 86.0796 105 73.001 105V111C89.7458 111 103.001 96.5958 103.001 79.2336H97.001ZM84.4606 56.5896C91.8817 60.93 97.001 69.4008 97.001 79.2336H103.001C103.001 67.312 96.7875 56.8484 87.4898 51.4104L84.4606 56.5896ZM97.001 28.7664C97.001 38.5992 91.8817 47.07 84.4606 51.4104L87.4898 56.5896C96.7875 51.1516 103.001 40.688 103.001 28.7664H97.001ZM73.001 3C86.0796 3 97.001 14.3541 97.001 28.7664H103.001C103.001 11.4042 89.7458 -3 73.001 -3V3ZM26.8075 3H73.001V-3H26.8075V3ZM26.001 3H26.8075V-3H26.001V3ZM29.001 0.0128567V0H23.001V0.0128567H29.001ZM3.00699 28.3277C3.31503 14.335 13.6698 3.40804 26.0967 3.01133L25.9053 -2.98562C9.89886 -2.47464 -2.62235 11.4243 -2.99155 28.1957L3.00699 28.3277ZM0.000976562 31.2617H0.0077188V25.2617H0.000976562V31.2617ZM3.00098 28.7138V28.2617H-2.99902V28.7138H3.00098ZM3 28.9636C3 28.8881 3.0003 28.8126 3.00088 28.7373L-2.99893 28.6903C-2.99964 28.7814 -3 28.8725 -3 28.9636H3ZM3.00088 29.19C3.0003 29.1146 3 29.0392 3 28.9636H-3C-3 29.0548 -2.99964 29.1459 -2.99893 29.2369L3.00088 29.19Z" fill="#DEF487" mask="url(#path-1-inside-1_230_6219)"/>
</svg>
