<svg width="40" height="40" viewBox="0 0 40 40" fill="none" xmlns="http://www.w3.org/2000/svg">
<g id="person.crop.circle.fill">
<path id="person.crop.circle.fill_2" d="M19.9875 32.4888C27.1066 32.4888 32.9827 26.6127 32.9827 19.5061C32.9827 12.3996 27.094 6.52344 19.9749 6.52344C12.8683 6.52344 7.00476 12.3996 7.00476 19.5061C7.00476 26.6127 12.8809 32.4888 19.9875 32.4888ZM19.9749 21.5527C17.514 21.5402 15.6055 19.481 15.6055 16.7564C15.5804 14.195 17.5265 12.0605 19.9749 12.0605C22.4233 12.0605 24.3443 14.195 24.3443 16.7564C24.3443 19.481 22.4358 21.5778 19.9749 21.5527ZM19.9749 30.3418C17.1624 30.3418 14.1741 29.1741 12.2782 27.1401C13.7221 24.9805 16.5848 23.7249 19.9749 23.7249C23.3273 23.7249 26.2151 24.9554 27.6716 27.1401C25.7757 29.1741 22.7874 30.3418 19.9749 30.3418Z" fill="#AFAFB3"/>
</g>
</svg>
