<svg width="166" height="200" viewBox="0 0 166 200" fill="none" xmlns="http://www.w3.org/2000/svg">
<path fill-rule="evenodd" clip-rule="evenodd" d="M83 80.3468C79.0499 88.5169 73.3522 95.3146 66.5222 100C73.3522 104.685 79.0499 111.483 83 119.653C86.9501 111.483 92.6478 104.685 99.4778 100C92.6478 95.3146 86.9501 88.5169 83 80.3468ZM0 146.5V56H0.0477256C0.0160246 55.1714 0 54.338 0 53.5C0 23.9528 19.9233 0 44.5 0C45.339 0 46.1725 0.027912 47 0.0830056V0H121.5H122V0.0033075C146.346 0.325551 166 24.1534 166 53.5C166 73.4154 156.949 90.7892 143.522 100C156.949 109.211 166 126.585 166 146.5C166 175.847 146.346 199.674 122 199.997V200H121.5H44.5H42V199.917C19.8297 198.441 1.98767 177.454 0.155188 151H0V146.5Z" fill="#687CFF"/>
<ellipse cx="82" cy="98.5" rx="25" ry="31.5" fill="#687CFF"/>
</svg>
